<svg width="35" height="34" viewBox="0 0 35 34" fill="none" xmlns="http://www.w3.org/2000/svg">
<path d="M4.10455 29.5295H26.7893L25.7059 26.4576C25.8666 26.5802 35 33.4359 35 33.4359V3.44808C34.8918 1.58403 33.0591 0 30.7873 0L4.1125 0.00417949C1.84227 0.00417949 0 1.59099 0 3.45505V26.08C0 28.0458 1.83909 29.5295 4.10455 29.5295V29.5295ZM20.8855 7.91735L20.833 7.93407L20.852 7.91735H20.8855ZM8.74523 9.68527C11.6614 7.82679 14.3643 7.91596 14.3643 7.91596L14.5823 8.10403C11.0139 8.84938 9.39591 10.2453 9.39591 10.2453C9.56136 10.2147 16.7666 6.57434 25.4975 10.3373C25.4975 10.3373 23.8764 9.03188 20.5275 8.19598L20.8234 7.94103C21.2864 7.94243 23.7364 8.01766 26.3582 9.69642C26.3582 9.69642 29.2918 14.0849 29.2918 19.4764C29.1948 19.3733 27.4718 21.7974 23.038 21.881C23.038 21.881 22.287 21.1371 21.7525 20.4879C24.3457 19.8359 25.3161 18.5319 25.3161 18.5319C20.2682 21.3154 15.8439 20.8807 10.5509 19C10.5016 19 10.4793 18.9805 10.4539 18.9582V18.9498C10.4284 18.9289 10.4061 18.908 10.3568 18.908H10.2614C9.93682 18.7213 9.72045 18.6294 9.72045 18.6294C9.72045 18.6294 10.6893 19.9334 13.1791 20.5854C12.5252 21.2388 11.8777 21.9813 11.8777 21.9813C7.44545 21.8894 5.82909 19.4653 5.82909 19.4653C5.82909 14.0654 8.74523 9.68527 8.74523 9.68527V9.68527Z" fill="#093132"/>
<path d="M21.1722 17.7921C22.3033 17.7921 23.2245 16.9562 23.2245 15.9253C23.2245 14.9013 22.3081 14.0654 21.1722 14.0654V14.0696C20.0458 14.0696 19.1231 14.9027 19.1199 15.9337C19.1199 16.9562 20.0411 17.7921 21.1722 17.7921Z" fill="#093132"/>
<path d="M13.8254 17.7921C14.9565 17.7921 15.8777 16.9562 15.8777 15.9253C15.8777 14.9013 14.9629 14.0654 13.8318 14.0654L13.8254 14.0696C12.6943 14.0696 11.7731 14.9027 11.7731 15.9337C11.7731 16.9562 12.6943 17.7921 13.8254 17.7921V17.7921Z" fill="#093132"/>
</svg>
