<svg width="35" height="35" viewBox="0 0 35 35" fill="none" xmlns="http://www.w3.org/2000/svg">
<path d="M17.5 35C27.165 35 35 27.165 35 17.5C35 7.83502 27.165 0 17.5 0C7.83502 0 0 7.83502 0 17.5C0 27.165 7.83502 35 17.5 35Z" fill="#093132"/>
<path d="M17.5001 0C16.7264 0 15.9646 0.0508594 15.2175 0.148135C23.8039 1.2667 30.4348 8.6087 30.4348 17.5C30.4348 26.3913 23.8038 33.7333 15.2174 34.8519C15.9646 34.9491 16.7264 35 17.5001 35C27.1651 35 35.0001 27.1649 35.0001 17.5C35.0001 7.83508 27.1651 0 17.5001 0Z" fill="#093132"/>
<path d="M22.0654 8.40768C20.7858 8.40768 19.7448 7.36664 19.7448 6.08702C19.7448 4.8074 20.7858 3.76636 22.0654 3.76636C23.345 3.76636 24.3861 4.8074 24.3861 6.08702C24.3861 7.36664 23.345 8.40768 22.0654 8.40768Z" fill="#ECE5DD"/>
<path d="M17.4999 31.2337C10.9341 31.2337 5.59235 26.7794 5.59235 21.3043C5.59235 15.8293 10.9341 11.375 17.4999 11.375C24.0658 11.375 29.4075 15.8293 29.4075 21.3043C29.4075 26.7794 24.0658 31.2337 17.4999 31.2337Z" fill="#ECE5DD"/>
<path d="M29.014 19.0366C28.4762 17.1464 27.2825 15.4404 25.5619 14.1032L25.0021 13.6681L25.517 13.1806C26.2286 12.507 27.1644 12.136 28.1521 12.136C30.2709 12.136 31.9946 13.8597 31.9946 15.9784C31.9946 17.4174 31.1617 18.7659 29.8728 19.4139L29.2153 19.7445L29.014 19.0366Z" fill="#ECE5DD"/>
<path d="M5.12716 19.4139C3.83832 18.7658 3.00549 17.4174 3.00549 15.9784C3.00549 13.8597 4.72917 12.136 6.84791 12.136C7.8359 12.136 8.77181 12.5069 9.48316 13.1805L9.99804 13.668L9.43818 14.103C7.71757 15.4403 6.52381 17.1462 5.9861 19.0365L5.78471 19.7444L5.12716 19.4139Z" fill="#ECE5DD"/>
<path d="M12.1742 21.3425C10.8946 21.3425 9.85352 20.3015 9.85352 19.0218C9.85352 17.7422 10.8946 16.7012 12.1742 16.7012C13.4538 16.7012 14.4948 17.7422 14.4948 19.0218C14.4948 20.3015 13.4538 21.3425 12.1742 21.3425Z" fill="#093132"/>
<path d="M22.8261 21.3425C21.5465 21.3425 20.5054 20.3015 20.5054 19.0218C20.5054 17.7422 21.5465 16.7012 22.8261 16.7012C24.1057 16.7012 25.1468 17.7422 25.1468 19.0218C25.1468 20.3015 24.1057 21.3425 22.8261 21.3425Z" fill="#093132"/>
<path d="M23.4333 25.3466C21.8806 26.6405 19.7734 27.3532 17.5001 27.3532C15.2268 27.3532 13.1196 26.6405 11.5669 25.3466C11.3248 25.145 10.9651 25.1776 10.7632 25.4197C10.5614 25.6618 10.5942 26.0216 10.8363 26.2234C12.5937 27.688 14.9603 28.4945 17.5002 28.4945C20.0401 28.4945 22.4066 27.688 24.164 26.2235C24.4062 26.0217 24.4388 25.6619 24.2371 25.4198C24.0352 25.1776 23.6753 25.1449 23.4333 25.3466Z" fill="#093132"/>
<path d="M18.0705 12.1738V7.25905L19.3147 6.84432C19.6474 8.05106 20.754 8.94015 22.065 8.94015C23.6384 8.94015 24.9183 7.66018 24.9183 6.08689C24.9183 4.5136 23.6383 3.23364 22.065 3.23364C20.635 3.23364 19.4476 4.29109 19.2431 5.66519L17.3193 6.30646C17.0863 6.38412 16.9291 6.60219 16.9291 6.8478V12.1739H18.0705V12.1738ZM22.065 4.3749C23.0091 4.3749 23.777 5.14285 23.777 6.08683C23.777 7.0308 23.009 7.79875 22.065 7.79875C21.1211 7.79875 20.3531 7.0308 20.3531 6.08683C20.3531 5.14285 21.121 4.3749 22.065 4.3749Z" fill="#ECE5DD"/>
</svg>
