<svg width="35" height="35" viewBox="0 0 35 35" fill="none" xmlns="http://www.w3.org/2000/svg">
<path d="M17.4999 0C27.1655 0 35 7.83562 35 17.5001C35 27.1656 27.1655 35 17.4999 35C7.83442 35 0 27.1655 0 17.5001C0 7.83562 7.83454 0 17.4999 0Z" fill="#093132"/>
<path d="M28.4406 11.7896C27.6761 12.1198 26.8535 12.3419 25.9906 12.4426C26.8722 11.9295 27.5481 11.1191 27.8664 10.1512C27.0417 10.6269 26.1295 10.9715 25.1572 11.1563C24.3795 10.3524 23.2715 9.85034 22.0444 9.85034C19.6907 9.85034 17.781 11.7021 17.781 13.988C17.781 14.3128 17.8182 14.6289 17.8914 14.9319C14.3476 14.7592 11.2042 13.1108 9.10208 10.6072C8.73456 11.2187 8.52455 11.9285 8.52455 12.6875C8.52455 14.1225 9.277 15.3912 10.4211 16.1318C9.72117 16.1099 9.06483 15.925 8.4885 15.6134V15.6659C8.4885 17.6718 9.95846 19.3442 11.9097 19.7248C11.552 19.8189 11.1757 19.8703 10.7864 19.8703C10.5118 19.8703 10.245 19.8452 9.98465 19.7959C10.5271 21.4409 12.1022 22.6374 13.9692 22.6703C12.5091 23.7815 10.6704 24.4422 8.6722 24.4422C8.32763 24.4422 7.98859 24.4225 7.65387 24.3843C9.54276 25.5589 11.7828 26.2447 14.1923 26.2447C22.0367 26.2447 26.3264 19.936 26.3264 14.4672L26.3144 13.9312C27.1455 13.3493 27.8686 12.6208 28.4406 11.7896Z" fill="white"/>
</svg>
